<svg width="150" height="40" viewBox="0 0 150 40" fill="none" xmlns="http://www.w3.org/2000/svg">
<path d="M104.374 25.9375C102.499 28.5417 99.4785 30.2083 96.041 30.2083C90.416 30.2083 85.7285 25.625 85.7285 19.8958C85.7285 14.2708 90.3118 9.58333 96.041 9.58333C99.4785 9.58333 102.499 11.25 104.374 13.8542L112.187 8.22916C108.541 3.22916 102.708 0 96.041 0C84.9993 0 76.041 8.95833 76.041 20C76.041 31.0417 84.9993 40 96.041 40C102.708 40 108.645 36.7708 112.187 31.6667L104.374 25.9375Z" fill="white"/>
<path d="M26.875 0.624878H33.4375V39.0624H27.8125L6.66667 11.7707V39.0624H0V0.624878H6.25L26.875 27.1874V0.624878Z" fill="white"/>
<path d="M56.6673 8.43715L50.1048 23.8538H63.334L56.6673 8.43715ZM76.7715 39.0622H69.6881L65.834 29.7913H47.6048L43.6465 39.0622H36.7715L53.6465 0.416321H59.8965L76.7715 39.0622Z" fill="white"/>
<path d="M133.75 16.7711C141.875 18.7503 146.042 21.6669 146.042 28.0211C146.042 35.3128 140.417 39.5836 132.292 39.5836C126.458 39.5836 120.833 37.6044 116.25 33.4378L120.313 28.6461C123.958 31.8753 127.708 33.6461 132.396 33.6461C136.563 33.6461 139.167 31.7711 139.167 28.7503C139.167 25.9378 137.604 24.4794 130.521 22.8128C122.396 20.8336 117.708 18.4378 117.708 11.2503C117.708 4.5836 123.229 0.104431 130.833 0.104431C136.458 0.104431 140.833 1.7711 144.792 4.8961L141.146 10.0003C137.708 7.3961 134.271 6.04193 130.729 6.04193C126.771 6.04193 124.479 8.02109 124.479 10.6253C124.583 13.7503 126.354 15.0003 133.75 16.7711Z" fill="white"/>
<path d="M147.812 35.9375H147.187V36.6667H147.812C148.124 36.6667 148.333 36.5625 148.333 36.25C148.333 36.0417 148.124 35.9375 147.812 35.9375ZM148.229 36.9792L148.854 37.9167H148.333L147.708 37.0834H147.187V37.9167H146.77V35.5209H147.812C148.333 35.5209 148.749 35.8334 148.749 36.25C148.854 36.6667 148.541 36.875 148.229 36.9792ZM147.708 34.6875C146.562 34.6875 145.624 35.625 145.624 36.7709C145.624 37.9167 146.458 38.8542 147.708 38.8542C148.854 38.8542 149.791 37.9167 149.791 36.7709C149.791 35.625 148.958 34.6875 147.708 34.6875ZM147.708 39.0625C146.458 39.0625 145.416 38.0208 145.416 36.7709C145.416 35.5209 146.458 34.4792 147.708 34.4792C148.958 34.4792 149.999 35.5209 149.999 36.7709C149.999 38.0208 149.062 39.0625 147.708 39.0625Z" fill="white"/>
</svg>
