<svg width="63" height="20" viewBox="0 0 63 20" fill="none" xmlns="http://www.w3.org/2000/svg">
<path d="M15 13.4001C14.3667 13.4001 13.8 13.6501 13.3667 14.0417L7.425 10.5834C7.46667 10.3917 7.5 10.2001 7.5 10.0001C7.5 9.80008 7.46667 9.60842 7.425 9.41675L13.3 5.99175C13.75 6.40841 14.3417 6.66675 15 6.66675C16.3833 6.66675 17.5 5.55008 17.5 4.16675C17.5 2.78341 16.3833 1.66675 15 1.66675C13.6167 1.66675 12.5 2.78341 12.5 4.16675C12.5 4.36675 12.5333 4.55841 12.575 4.75008L6.7 8.17508C6.25 7.75842 5.65833 7.50008 5 7.50008C3.61667 7.50008 2.5 8.61675 2.5 10.0001C2.5 11.3834 3.61667 12.5001 5 12.5001C5.65833 12.5001 6.25 12.2417 6.7 11.8251L12.6333 15.2917C12.5917 15.4667 12.5667 15.6501 12.5667 15.8334C12.5667 17.1751 13.6583 18.2667 15 18.2667C16.3417 18.2667 17.4333 17.1751 17.4333 15.8334C17.4333 14.4917 16.3417 13.4001 15 13.4001Z" fill="black" fill-opacity="0.6"/>
<path d="M31.996 14.12C33.808 14.12 35.08 13.184 35.08 11.516V11.492C35.08 10.028 34.12 9.416 32.416 8.972C30.964 8.6 30.604 8.42 30.604 7.868V7.844C30.604 7.436 30.976 7.112 31.684 7.112C32.392 7.112 33.124 7.424 33.868 7.94L34.828 6.548C33.976 5.864 32.932 5.48 31.708 5.48C29.992 5.48 28.768 6.488 28.768 8.012V8.036C28.768 9.704 29.86 10.172 31.552 10.604C32.956 10.964 33.244 11.204 33.244 11.672V11.696C33.244 12.188 32.788 12.488 32.032 12.488C31.072 12.488 30.28 12.092 29.524 11.468L28.432 12.776C29.44 13.676 30.724 14.12 31.996 14.12ZM36.4918 14H38.3158V10.412C38.3158 9.548 38.7598 9.104 39.4558 9.104C40.1518 9.104 40.5598 9.548 40.5598 10.412V14H42.3838V9.836C42.3838 8.36 41.5798 7.448 40.1998 7.448C39.2758 7.448 38.7358 7.94 38.3158 8.48V5.24H36.4918V14ZM45.7923 14.12C46.6803 14.12 47.2923 13.796 47.7363 13.304V14H49.5003V10.268C49.5003 9.404 49.2843 8.696 48.8043 8.216C48.3483 7.76 47.6283 7.496 46.6323 7.496C45.5403 7.496 44.8443 7.7 44.1363 8.012L44.5923 9.404C45.1803 9.188 45.6723 9.056 46.3683 9.056C47.2803 9.056 47.7483 9.476 47.7483 10.232V10.34C47.2923 10.184 46.8243 10.076 46.1763 10.076C44.6523 10.076 43.5843 10.724 43.5843 12.128V12.152C43.5843 13.424 44.5803 14.12 45.7923 14.12ZM46.3443 12.86C45.7563 12.86 45.3483 12.572 45.3483 12.08V12.056C45.3483 11.48 45.8283 11.168 46.6083 11.168C47.0523 11.168 47.4603 11.264 47.7723 11.408V11.732C47.7723 12.392 47.1963 12.86 46.3443 12.86ZM51.0699 14H52.8939V11.624C52.8939 10.088 53.6379 9.356 54.8499 9.356H54.9459V7.448C53.8659 7.4 53.2659 7.976 52.8939 8.864V7.568H51.0699V14ZM58.9578 14.144C60.1218 14.144 60.9858 13.688 61.5858 12.944L60.5418 12.02C60.0378 12.488 59.5938 12.68 58.9818 12.68C58.1658 12.68 57.5898 12.248 57.4098 11.42H61.8858C61.8978 11.252 61.9098 11.084 61.9098 10.94C61.9098 9.116 60.9258 7.448 58.7778 7.448C56.9058 7.448 55.5978 8.96 55.5978 10.796V10.82C55.5978 12.788 57.0258 14.144 58.9578 14.144ZM57.3858 10.28C57.5298 9.452 58.0218 8.912 58.7778 8.912C59.5458 8.912 60.0258 9.464 60.1338 10.28H57.3858Z" fill="black" fill-opacity="0.6"/>
</svg>
