<svg width="95" height="75" viewBox="0 0 95 75" fill="none" xmlns="http://www.w3.org/2000/svg">
<path d="M89.439 56.135C89.439 47.6227 84.1097 40.7209 76 40.7209C74.8415 40.7209 73.4512 40.9509 72.061 41.411L70.9024 41.6411L69.2805 40.0307C71.1341 30.3681 79.939 18.1748 95 5.29141L90.1341 0C66.0366 13.5736 51.6707 31.7485 51.6707 51.9939C51.6707 66.4877 59.5488 75 71.8293 75C81.7927 75 89.439 65.7975 89.439 56.135ZM37.7683 56.135C37.7683 47.6227 32.439 40.7209 24.3293 40.7209C23.1707 40.7209 21.7805 40.9509 20.3902 41.411L19.2317 41.6411L17.6098 40.0307C19.4634 30.3681 28.2683 18.1748 43.0976 5.29141L38.4634 0C14.3659 13.5736 0 31.7485 0 51.9939C0 66.4877 7.64634 75 20.1585 75C30.122 75 37.7683 65.7975 37.7683 56.135Z" fill="black"/>
</svg>
