<svg width="74" height="20" viewBox="0 0 74 20" fill="none" xmlns="http://www.w3.org/2000/svg">
<path d="M15 13.4C14.3667 13.4 13.8 13.65 13.3667 14.0416L7.425 10.5833C7.46667 10.3916 7.5 10.2 7.5 9.99996C7.5 9.79996 7.46667 9.60829 7.425 9.41663L13.3 5.99163C13.75 6.40829 14.3417 6.66663 15 6.66663C16.3833 6.66663 17.5 5.54996 17.5 4.16663C17.5 2.78329 16.3833 1.66663 15 1.66663C13.6167 1.66663 12.5 2.78329 12.5 4.16663C12.5 4.36663 12.5333 4.55829 12.575 4.74996L6.7 8.17496C6.25 7.75829 5.65833 7.49996 5 7.49996C3.61667 7.49996 2.5 8.61663 2.5 9.99996C2.5 11.3833 3.61667 12.5 5 12.5C5.65833 12.5 6.25 12.2416 6.7 11.825L12.6333 15.2916C12.5917 15.4666 12.5667 15.65 12.5667 15.8333C12.5667 17.175 13.6583 18.2666 15 18.2666C16.3417 18.2666 17.4333 17.175 17.4333 15.8333C17.4333 14.4916 16.3417 13.4 15 13.4Z" fill="#005F9D"/>
<path d="M33.36 15.16C35.712 15.16 37.36 13.912 37.36 11.816V11.784C37.36 9.928 36.128 9.08 33.76 8.504C31.616 7.992 31.104 7.608 31.104 6.744V6.712C31.104 5.976 31.776 5.384 32.928 5.384C33.952 5.384 34.96 5.784 35.968 6.536L37.024 5.048C35.888 4.136 34.592 3.64 32.96 3.64C30.736 3.64 29.136 4.968 29.136 6.888V6.92C29.136 8.984 30.48 9.688 32.864 10.264C34.944 10.744 35.392 11.176 35.392 11.976V12.008C35.392 12.856 34.624 13.416 33.408 13.416C32.016 13.416 30.944 12.888 29.872 11.96L28.688 13.368C30.032 14.568 31.648 15.16 33.36 15.16ZM39.4504 15H41.3864V10.232C41.3864 8.92 42.1704 8.136 43.2904 8.136C44.4424 8.136 45.0984 8.888 45.0984 10.2V15H47.0344V9.624C47.0344 7.656 45.9304 6.376 44.0264 6.376C42.7144 6.376 41.9304 7.064 41.3864 7.864V3.32H39.4504V15ZM56.4603 15V9.992C56.4603 7.736 55.2443 6.424 52.7483 6.424C51.3723 6.424 50.4603 6.712 49.5323 7.128L50.0603 8.68C50.8283 8.36 51.5323 8.152 52.4763 8.152C53.8203 8.152 54.5563 8.792 54.5563 9.96V10.12C53.9003 9.912 53.2443 9.768 52.2203 9.768C50.2523 9.768 48.7963 10.664 48.7963 12.536V12.568C48.7963 14.264 50.2043 15.176 51.8043 15.176C53.0843 15.176 53.9643 14.648 54.5403 13.96V15H56.4603ZM54.5883 11.944C54.5883 13 53.6283 13.72 52.3483 13.72C51.4363 13.72 50.7163 13.272 50.7163 12.472V12.44C50.7163 11.624 51.4363 11.128 52.6523 11.128C53.4043 11.128 54.0923 11.272 54.5883 11.464V11.944ZM58.7629 15H60.6989V11.784C60.6989 9.544 61.8829 8.44 63.5789 8.44H63.6909V6.392C62.2029 6.328 61.2269 7.192 60.6989 8.456V6.552H58.7629V15ZM68.963 15.192C70.515 15.192 71.619 14.568 72.419 13.608L71.283 12.6C70.611 13.256 69.939 13.608 68.995 13.608C67.747 13.608 66.771 12.84 66.563 11.464H72.771C72.787 11.272 72.803 11.096 72.803 10.92C72.803 8.488 71.443 6.376 68.755 6.376C66.339 6.376 64.627 8.36 64.627 10.776V10.808C64.627 13.416 66.515 15.192 68.963 15.192ZM66.547 10.184C66.723 8.872 67.555 7.96 68.739 7.96C70.019 7.96 70.755 8.936 70.883 10.184H66.547Z" fill="#005F9D"/>
</svg>
