<svg width="17" height="17" viewBox="0 0 17 17" fill="none" xmlns="http://www.w3.org/2000/svg">
<path d="M22.0407 20.156L27.7513 25.8653L25.8647 27.752L20.1553 22.0413C18.031 23.7443 15.3887 24.6705 12.666 24.6667C6.04202 24.6667 0.666016 19.2907 0.666016 12.6667C0.666016 6.04267 6.04202 0.666668 12.666 0.666668C19.29 0.666668 24.666 6.04267 24.666 12.6667C24.6699 15.3893 23.7436 18.0317 22.0407 20.156ZM19.366 19.1667C21.0582 17.4265 22.0032 15.0939 21.9993 12.6667C21.9993 7.50933 17.822 3.33333 12.666 3.33333C7.50868 3.33333 3.33268 7.50933 3.33268 12.6667C3.33268 17.8227 7.50868 22 12.666 22C15.0933 22.0038 17.4259 21.0588 19.166 19.3667L19.366 19.1667Z" fill="#09121F"/>
</svg>
