<svg width="67" height="20" viewBox="0 0 67 20" fill="none" xmlns="http://www.w3.org/2000/svg">
<g clip-path="url(#clip0_537_7518)">
<path d="M5.83366 14.1666H14.167V18.3333H5.83366V14.1666ZM15.8337 16.6666V12.5H4.16699V16.6666H2.50033C2.27931 16.6666 2.06735 16.5788 1.91107 16.4225C1.75479 16.2663 1.66699 16.0543 1.66699 15.8333V7.49996C1.66699 7.27895 1.75479 7.06698 1.91107 6.9107C2.06735 6.75442 2.27931 6.66663 2.50033 6.66663H17.5003C17.7213 6.66663 17.9333 6.75442 18.0896 6.9107C18.2459 7.06698 18.3337 7.27895 18.3337 7.49996V15.8333C18.3337 16.0543 18.2459 16.2663 18.0896 16.4225C17.9333 16.5788 17.7213 16.6666 17.5003 16.6666H15.8337ZM4.16699 8.33329V9.99996H6.66699V8.33329H4.16699ZM5.83366 1.66663H14.167C14.388 1.66663 14.6 1.75442 14.7562 1.9107C14.9125 2.06698 15.0003 2.27895 15.0003 2.49996V4.99996H5.00033V2.49996C5.00033 2.27895 5.08812 2.06698 5.2444 1.9107C5.40068 1.75442 5.61265 1.66663 5.83366 1.66663Z" fill="#005F9D"/>
</g>
<path d="M29.44 15H31.408V11.4H33.632C36.096 11.4 38.112 10.088 38.112 7.576V7.544C38.112 5.288 36.464 3.8 33.856 3.8H29.44V15ZM31.408 9.624V5.592H33.696C35.168 5.592 36.112 6.28 36.112 7.592V7.624C36.112 8.792 35.184 9.624 33.696 9.624H31.408ZM39.9035 15H41.8395V11.784C41.8395 9.544 43.0235 8.44 44.7195 8.44H44.8315V6.392C43.3435 6.328 42.3675 7.192 41.8395 8.456V6.552H39.9035V15ZM46.5449 5.256H48.6249V3.416H46.5449V5.256ZM46.6249 15H48.5609V6.552H46.6249V15ZM51.091 15H53.027V10.232C53.027 8.92 53.811 8.136 54.931 8.136C56.083 8.136 56.739 8.888 56.739 10.2V15H58.675V9.624C58.675 7.656 57.571 6.376 55.667 6.376C54.355 6.376 53.571 7.064 53.027 7.864V6.552H51.091V15ZM63.8449 15.144C64.5649 15.144 65.1089 14.984 65.5889 14.712V13.128C65.2049 13.32 64.8209 13.416 64.3889 13.416C63.7329 13.416 63.3489 13.112 63.3489 12.36V8.216H65.6209V6.552H63.3489V4.232H61.4129V6.552H60.3409V8.216H61.4129V12.664C61.4129 14.52 62.4209 15.144 63.8449 15.144Z" fill="#005F9D"/>
<defs>
<clipPath id="clip0_537_7518">
<rect width="20" height="20" fill="white"/>
</clipPath>
</defs>
</svg>
