<svg width="384" height="105" viewBox="0 0 384 105" fill="none" xmlns="http://www.w3.org/2000/svg">
<path d="M91.4524 57.6835C89.8096 59.9653 87.1627 61.4256 84.1508 61.4256C79.2222 61.4256 75.1151 57.4097 75.1151 52.3899C75.1151 47.4613 79.131 43.3541 84.1508 43.3541C87.1627 43.3541 89.8096 44.8145 91.4524 47.0962L98.2977 42.1676C95.1032 37.7866 89.9921 34.9573 84.1508 34.9573C74.4762 34.9573 66.627 42.8065 66.627 52.4811C66.627 62.1558 74.4762 70.005 84.1508 70.005C89.9921 70.005 95.1945 67.1756 98.2977 62.7034L91.4524 57.6835Z" fill="#62BA46"/>
<path d="M23.5477 35.5046H29.2977V69.1833H24.3691L5.84129 45.2705V69.1833H0V35.5046H5.47621L23.5477 58.7785V35.5046Z" fill="#005F9D"/>
<path d="M49.6504 42.3498L43.9004 55.8578H55.4917L49.6504 42.3498ZM67.2655 69.1833H61.0591L57.6821 61.0602H41.7099L38.2416 69.1833H32.2178L47.0035 35.322H52.4797L67.2655 69.1833Z" fill="#005F9D"/>
<path d="M117.191 49.6521C124.31 51.3862 127.961 53.9418 127.961 59.5092C127.961 65.8981 123.032 69.6402 115.913 69.6402C110.802 69.6402 105.873 67.9061 101.857 64.2553L105.417 60.0569C108.611 62.8862 111.897 64.4378 116.004 64.4378C119.655 64.4378 121.937 62.795 121.937 60.1481C121.937 57.6838 120.568 56.406 114.361 54.9457C107.242 53.2116 103.135 51.1124 103.135 44.8147C103.135 38.9734 107.973 35.0488 114.635 35.0488C119.564 35.0488 123.397 36.5091 126.865 39.2473L123.671 43.7195C120.659 41.4377 117.647 40.2512 114.544 40.2512C111.076 40.2512 109.068 41.9854 109.068 44.2671C109.159 47.0052 110.711 48.1005 117.191 49.6521Z" fill="#005F9D"/>
<path d="M129.512 66.4455H128.965V67.0844H129.512C129.786 67.0844 129.969 66.9931 129.969 66.7193C129.969 66.5368 129.786 66.4455 129.512 66.4455ZM129.877 67.3582L130.425 68.1796H129.969L129.421 67.4495H128.965V68.1796H128.6V66.0804H129.512C129.969 66.0804 130.334 66.3542 130.334 66.7193C130.425 67.0844 130.151 67.2669 129.877 67.3582ZM129.421 65.3503C128.417 65.3503 127.596 66.1717 127.596 67.1757C127.596 68.1796 128.326 69.0011 129.421 69.0011C130.425 69.0011 131.246 68.1796 131.246 67.1757C131.246 66.1717 130.516 65.3503 129.421 65.3503ZM129.421 69.1836C128.326 69.1836 127.413 68.2709 127.413 67.1757C127.413 66.0804 128.326 65.1677 129.421 65.1677C130.516 65.1677 131.429 66.0804 131.429 67.1757C131.429 68.2709 130.608 69.1836 129.421 69.1836Z" fill="#7F7F7F"/>
<line x1="145.93" y1="2.10461e-08" x2="145.93" y2="104.962" stroke="#758089" stroke-width="0.962956"/>
<path d="M163.8 66.5923H169.626V42.5184L180.17 58.3109H180.363L191.004 42.4221V66.5923H196.926V32.8888H190.618L180.363 48.8257L170.107 32.8888H163.8V66.5923ZM224.811 66.5923V51.522C224.811 44.7332 221.152 40.7851 213.641 40.7851C209.5 40.7851 206.756 41.6517 203.963 42.9036L205.552 47.5739C207.863 46.611 209.982 45.985 212.822 45.985C216.867 45.985 219.082 47.9109 219.082 51.4257V51.9072C217.108 51.2813 215.134 50.848 212.052 50.848C206.13 50.848 201.748 53.5442 201.748 59.1775V59.2738C201.748 64.3775 205.985 67.1219 210.8 67.1219C214.652 67.1219 217.3 65.533 219.034 63.4627V66.5923H224.811ZM219.178 57.3961C219.178 60.5738 216.289 62.7405 212.437 62.7405C209.693 62.7405 207.526 61.3923 207.526 58.9849V58.8886C207.526 56.4331 209.693 54.9405 213.352 54.9405C215.615 54.9405 217.685 55.3738 219.178 55.9516V57.3961ZM241.611 74.3922C246.185 74.3922 249.748 73.2848 252.059 70.9737C254.177 68.8552 255.285 65.6775 255.285 61.3923V41.1703H249.459V44.9739C247.485 42.6147 244.837 40.6406 240.551 40.6406C234.629 40.6406 228.996 45.0702 228.996 52.5813V52.6776C228.996 60.1405 234.581 64.5701 240.551 64.5701C244.74 64.5701 247.388 62.6442 249.507 59.8997V61.8738C249.507 66.9775 246.666 69.6737 241.466 69.6737C238 69.6737 235.111 68.6626 232.414 66.9775L230.248 71.3589C233.522 73.333 237.422 74.3922 241.611 74.3922ZM242.092 59.659C238.096 59.659 234.87 56.8183 234.87 52.6294V52.5331C234.87 48.3443 238.048 45.5517 242.092 45.5517C246.137 45.5517 249.555 48.3924 249.555 52.5813V52.6776C249.555 56.7701 246.137 59.659 242.092 59.659ZM282.436 66.5923V51.522C282.436 44.7332 278.777 40.7851 271.266 40.7851C267.125 40.7851 264.381 41.6517 261.588 42.9036L263.177 47.5739C265.488 46.611 267.607 45.985 270.447 45.985C274.492 45.985 276.707 47.9109 276.707 51.4257V51.9072C274.733 51.2813 272.759 50.848 269.677 50.848C263.755 50.848 259.373 53.5442 259.373 59.1775V59.2738C259.373 64.3775 263.61 67.1219 268.425 67.1219C272.277 67.1219 274.925 65.533 276.659 63.4627V66.5923H282.436ZM276.803 57.3961C276.803 60.5738 273.914 62.7405 270.062 62.7405C267.318 62.7405 265.151 61.3923 265.151 58.9849V58.8886C265.151 56.4331 267.318 54.9405 270.977 54.9405C273.24 54.9405 275.31 55.3738 276.803 55.9516V57.3961ZM286.765 66.5923H308.865V61.8257H294.18L308.865 45.1665V41.1703H287.295V45.9369H301.451L286.765 62.596V66.5923ZM313.515 37.2703H319.774V31.7333H313.515V37.2703ZM313.756 66.5923H319.582V41.1703H313.756V66.5923ZM325.751 66.5923H331.577V52.2442C331.577 48.2961 333.936 45.9369 337.306 45.9369C340.773 45.9369 342.747 48.1998 342.747 52.1479V66.5923H348.573V50.4146C348.573 44.4924 345.251 40.6406 339.521 40.6406C335.573 40.6406 333.214 42.711 331.577 45.1184V41.1703H325.751V66.5923ZM365.815 67.1701C370.486 67.1701 373.808 65.2923 376.215 62.4034L372.797 59.3701C370.775 61.3442 368.752 62.4034 365.912 62.4034C362.156 62.4034 359.219 60.0923 358.593 55.9516H377.275C377.323 55.3738 377.371 54.8442 377.371 54.3146C377.371 46.9961 373.278 40.6406 365.19 40.6406C357.919 40.6406 352.767 46.611 352.767 53.8813V53.9776C352.767 61.8257 358.449 67.1701 365.815 67.1701ZM358.545 52.0998C359.075 48.1517 361.578 45.4073 365.141 45.4073C368.993 45.4073 371.208 48.3443 371.593 52.0998H358.545Z" fill="#425465"/>
<path d="M382.083 65.3146H381.535V65.9535H382.083C382.356 65.9535 382.539 65.8623 382.539 65.5885C382.539 65.4059 382.356 65.3146 382.083 65.3146ZM382.448 66.2274L382.995 67.0488H382.539L381.991 66.3186H381.535V67.0488H381.17V64.9496H382.083C382.539 64.9496 382.904 65.2234 382.904 65.5885C382.995 65.9535 382.722 66.1361 382.448 66.2274ZM381.991 64.2194C380.987 64.2194 380.166 65.0408 380.166 66.0448C380.166 67.0488 380.896 67.8702 381.991 67.8702C382.995 67.8702 383.817 67.0488 383.817 66.0448C383.817 65.0408 383.087 64.2194 381.991 64.2194ZM381.991 68.0528C380.896 68.0528 379.983 67.14 379.983 66.0448C379.983 64.9496 380.896 64.0369 381.991 64.0369C383.087 64.0369 383.999 64.9496 383.999 66.0448C383.999 67.14 383.178 68.0528 381.991 68.0528Z" fill="#7F7F7F"/>
</svg>
