<svg width="16" height="16" viewBox="0 0 16 16" fill="none" xmlns="http://www.w3.org/2000/svg">
<path fill-rule="evenodd" clip-rule="evenodd" d="M6.07175 5.72675H8.85725V7.11425C9.2585 6.31625 10.2875 5.59925 11.8333 5.59925C14.7965 5.59925 15.5 7.18775 15.5 10.1023V15.5H12.5V10.766C12.5 9.10625 12.0988 8.17025 11.0773 8.17025C9.6605 8.17025 9.07175 9.179 9.07175 10.7653V15.5H6.07175V5.72675ZM0.9275 15.3725H3.9275V5.59925H0.9275V15.3725ZM4.35725 2.4125C4.35736 2.66396 4.30749 2.91293 4.21054 3.14494C4.11359 3.37695 3.97149 3.58738 3.7925 3.764C3.4298 4.12447 2.93886 4.32624 2.4275 4.325C1.91704 4.32466 1.42723 4.1234 1.064 3.76475C0.885659 3.58753 0.744039 3.37687 0.647258 3.14482C0.550476 2.91278 0.500434 2.66392 0.5 2.4125C0.5 1.90475 0.7025 1.41875 1.06475 1.06025C1.42766 0.701119 1.91768 0.499776 2.42825 0.5C2.93975 0.5 3.43025 0.70175 3.7925 1.06025C4.154 1.41875 4.35725 1.90475 4.35725 2.4125Z" fill="#005F9D"/>
</svg>
