<svg width="18" height="14" viewBox="0 0 18 14" fill="none" xmlns="http://www.w3.org/2000/svg">
<path d="M17.7326 1.70269C17.1064 1.98019 16.4336 2.16769 15.7264 2.25244C16.4561 1.81578 17.0021 1.12854 17.2624 0.318936C16.5768 0.726178 15.8264 1.01283 15.0439 1.16644C14.5177 0.604584 13.8207 0.23218 13.0611 0.107041C12.3016 -0.0180979 11.5219 0.111029 10.8433 0.474375C10.1647 0.837721 9.62496 1.41496 9.30799 2.11646C8.99102 2.81797 8.91453 3.6045 9.09037 4.35394C7.70114 4.28418 6.34209 3.9231 5.10144 3.29411C3.86079 2.66513 2.76626 1.78231 1.88887 0.702936C1.58887 1.22044 1.41637 1.82044 1.41637 2.45944C1.41604 3.03468 1.5577 3.60112 1.82878 4.10848C2.09987 4.61585 2.492 5.04846 2.97037 5.36794C2.41558 5.35028 1.87303 5.20037 1.38787 4.93069V4.97568C1.38782 5.78249 1.6669 6.56447 2.17776 7.18893C2.68862 7.8134 3.3998 8.24188 4.19062 8.40169C3.67596 8.54097 3.13638 8.56149 2.61262 8.46169C2.83575 9.1559 3.27037 9.76295 3.85565 10.1979C4.44093 10.6328 5.14756 10.8738 5.87662 10.8872C4.639 11.8587 3.11054 12.3858 1.53712 12.3834C1.25841 12.3835 0.979932 12.3672 0.703125 12.3347C2.30023 13.3616 4.15938 13.9066 6.05812 13.9044C12.4856 13.9044 15.9994 8.58094 15.9994 3.96394C15.9994 3.81394 15.9956 3.66244 15.9889 3.51244C16.6723 3.01817 17.2623 2.40611 17.7311 1.70494L17.7326 1.70269Z" fill="#005F9D"/>
</svg>
