<svg width="19" height="14" viewBox="0 0 19 14" fill="none" xmlns="http://www.w3.org/2000/svg">
<path d="M18.3774 2.88031C18.2755 2.51673 18.077 2.18757 17.8029 1.92781C17.5211 1.66006 17.1758 1.46853 16.7994 1.37131C15.3909 1.00006 9.74792 1.00006 9.74792 1.00006C7.39541 0.973292 5.04349 1.09101 2.70542 1.35256C2.32906 1.45697 1.98434 1.65277 1.70192 1.92256C1.42442 2.18956 1.22342 2.51881 1.11842 2.87956C0.866186 4.23836 0.743635 5.61807 0.752416 7.00006C0.743416 8.38081 0.865666 9.76006 1.11842 11.1206C1.22117 11.4798 1.42142 11.8076 1.69967 12.0723C1.97792 12.3371 2.32442 12.5283 2.70542 12.6296C4.13267 13.0001 9.74792 13.0001 9.74792 13.0001C12.1034 13.0269 14.4583 12.9091 16.7994 12.6476C17.1758 12.5503 17.5211 12.3588 17.8029 12.0911C18.0769 11.8313 18.2752 11.5021 18.3767 11.1386C18.6355 9.78027 18.7613 8.4 18.7524 7.01731C18.7719 5.62876 18.6462 4.24198 18.3774 2.87956V2.88031ZM7.95392 9.56806V4.43281L12.6489 7.00081L7.95392 9.56806Z" fill="#ffffff"/>
</svg>
